<svg width="213" height="148" viewBox="0 0 213 148" fill="none" xmlns="http://www.w3.org/2000/svg">
<path d="M209.444 116.039C208.235 113.687 205.843 112.231 203.199 112.231H199.213C197.523 67.8285 165.125 31.1815 122.689 22.9528C122.751 22.3666 122.846 21.7841 122.846 21.2051C122.846 11.1668 114.679 3 104.641 3C94.6022 3 86.4354 11.1668 86.4354 21.2051C86.4354 21.7841 86.5264 22.3703 86.592 22.9528C44.1522 31.1779 11.7544 67.8285 10.0649 112.231H9.71902C7.07563 112.231 4.68348 113.687 3.47466 116.039C2.26584 118.391 2.46974 121.184 4.00625 123.336L12.235 134.856C16.7717 141.21 24.1411 145 31.9438 145H180.978C188.781 145 196.15 141.21 200.687 134.856L208.92 123.336C210.452 121.184 210.653 118.388 209.444 116.039ZM93.7393 21.8314C93.7248 21.6202 93.7175 21.409 93.7175 21.2051C93.7175 15.1829 98.6183 10.2821 104.641 10.2821C110.663 10.2821 115.564 15.1829 115.564 21.2051C115.564 21.4127 115.556 21.6202 115.542 21.8314C115.371 21.8132 115.2 21.8059 115.032 21.7877C113.78 21.6493 112.52 21.551 111.253 21.4636C110.787 21.4309 110.324 21.3835 109.858 21.3581C108.125 21.2597 106.388 21.2051 104.641 21.2051C102.893 21.2051 101.152 21.2597 99.4266 21.3544C98.9606 21.3799 98.4981 21.4272 98.0321 21.46C96.765 21.5474 95.5052 21.6493 94.2527 21.7841C94.0816 21.8059 93.9105 21.8095 93.7393 21.8314ZM91.5547 29.4666C93.5027 29.1753 95.4688 28.9642 97.435 28.8039C97.8355 28.7712 98.236 28.742 98.6365 28.7166C102.634 28.4471 106.65 28.4471 110.648 28.7166C111.049 28.7457 111.449 28.7748 111.85 28.8039C113.816 28.9642 115.778 29.1753 117.73 29.4666C158.55 35.6236 190.216 70.1296 191.949 112.231H17.3288C19.0655 70.1296 50.7279 35.6236 91.5547 29.4666ZM194.76 130.622C191.585 135.064 186.433 137.718 180.975 137.718H31.9438C26.4859 137.718 21.3339 135.064 18.1589 130.625L10.2215 119.513H199.307H202.697L194.76 130.622Z" fill="#D1D1D1" stroke="#D1D1D1" stroke-width="4.49123"/>
<path d="M104.59 35.7693C98.6073 35.7693 92.6542 36.4283 86.8941 37.7245C84.9316 38.1651 83.7009 40.113 84.1415 42.0755C84.5238 43.7686 86.0276 44.9155 87.6915 44.9155C87.9573 44.9155 88.2267 44.8864 88.4962 44.8281C93.732 43.6485 99.1462 43.0513 104.59 43.0513C104.604 43.0513 104.619 43.0513 104.637 43.0513C106.647 43.0513 108.278 41.4238 108.278 39.4139C108.282 37.3859 106.665 35.7001 104.59 35.7693Z" fill="#D1D1D1" stroke="#D1D1D1" stroke-width="4.49123"/>
<path d="M65.1354 46.3246C46.1875 57.5499 32.3953 77.8595 28.2372 100.652C27.8768 102.633 29.1876 104.526 31.1683 104.887C31.3867 104.931 31.6052 104.949 31.8237 104.949C33.5495 104.949 35.0824 103.718 35.4028 101.963C39.1858 81.2165 51.6891 62.7565 68.8492 52.5908C70.5787 51.5677 71.1504 49.3321 70.1272 47.6026C69.0968 45.8731 66.8685 45.3015 65.1354 46.3246Z" fill="#D1D1D1" stroke="#D1D1D1" stroke-width="4.49123"/>
</svg>