<svg xmlns="http://www.w3.org/2000/svg" viewBox="0 0 388.6 198.5" fill="#aaa">
    <path d="M201.1,289.7a42.4,42.4,0,0,1-17.4-3.6,43.9,43.9,0,0,1-14.1-9.9,48.9,48.9,0,0,1-9.6-14.9,49.1,49.1,0,0,1,0-36.4,48.9,48.9,0,0,1,9.6-14.9,43.9,43.9,0,0,1,14.1-9.9,43.4,43.4,0,0,1,34.6,0,43.2,43.2,0,0,1,14.2,9.9,45.5,45.5,0,0,1,9.6,14.9,49.1,49.1,0,0,1,0,36.4,45.5,45.5,0,0,1-9.6,14.9,43.2,43.2,0,0,1-14.2,9.9A42.1,42.1,0,0,1,201.1,289.7Zm-.1-77.3a23,23,0,0,0-10.3,2.5,29.6,29.6,0,0,0-8.5,6.5,31.1,31.1,0,0,0-5.7,9.7,36.4,36.4,0,0,0,0,23.8,31.6,31.6,0,0,0,5.7,9.8,28.3,28.3,0,0,0,8.5,6.6,22.9,22.9,0,0,0,10.3,2.4,22.5,22.5,0,0,0,10.2-2.4,26.7,26.7,0,0,0,8.4-6.6,31.4,31.4,0,0,0,5.6-9.8,34.8,34.8,0,0,0,0-23.8,30.9,30.9,0,0,0-5.6-9.7,27.9,27.9,0,0,0-8.4-6.5A22.6,22.6,0,0,0,201,212.4Z" transform="translate(-54.7 -151.9)"/>
    <path d="M299.1,289.7a41.9,41.9,0,0,1-17.3-3.6,43.9,43.9,0,0,1-14.1-9.9,45.5,45.5,0,0,1-9.6-14.9,49.1,49.1,0,0,1,0-36.4,45.5,45.5,0,0,1,9.6-14.9,43.9,43.9,0,0,1,14.1-9.9,43.4,43.4,0,0,1,34.6,0,43.2,43.2,0,0,1,14.2,9.9,48.9,48.9,0,0,1,9.6,14.9,49.1,49.1,0,0,1,0,36.4,48.9,48.9,0,0,1-9.6,14.9,43.2,43.2,0,0,1-14.2,9.9A42.2,42.2,0,0,1,299.1,289.7Zm-.1-77.3a22.6,22.6,0,0,0-10.2,2.5,28.3,28.3,0,0,0-8.5,6.5,31.1,31.1,0,0,0-5.7,9.7,36.4,36.4,0,0,0,0,23.8,31.6,31.6,0,0,0,5.7,9.8,27.1,27.1,0,0,0,8.5,6.6,22.5,22.5,0,0,0,10.2,2.4,22.9,22.9,0,0,0,10.3-2.4,26.7,26.7,0,0,0,8.4-6.6,33.5,33.5,0,0,0,5.6-9.8,36.4,36.4,0,0,0,0-23.8,32.9,32.9,0,0,0-5.6-9.7,27.9,27.9,0,0,0-8.4-6.5A23,23,0,0,0,299,212.4Z" transform="translate(-54.7 -151.9)"/>
    <path d="M443.3,151.9V287.5H429l-3.7-9.3a41.7,41.7,0,0,1-12.3,8.5,39.1,39.1,0,0,1-15.8,3,40.3,40.3,0,0,1-17.1-3.6,41.4,41.4,0,0,1-13.5-9.9,44,44,0,0,1-9-14.9,51.8,51.8,0,0,1,0-36.4,44,44,0,0,1,9-14.9,41.4,41.4,0,0,1,13.5-9.9,43.7,43.7,0,0,1,33.3-.6,36.6,36.6,0,0,1,11.9,8.7V151.9ZM398.6,273.7a28.6,28.6,0,0,0,10.3-1.8,21.7,21.7,0,0,0,8.4-5.7,24.4,24.4,0,0,0,5.7-9.5,40.1,40.1,0,0,0,2.1-13.6A41.1,41.1,0,0,0,423,229a22.6,22.6,0,0,0-5.7-9.4,21.6,21.6,0,0,0-8.4-5.2,30.9,30.9,0,0,0-10.3-1.6,24.6,24.6,0,0,0-10.3,2.3,25,25,0,0,0-8.3,6.5,28.6,28.6,0,0,0-5.6,9.6,34.8,34.8,0,0,0,0,23.8,29,29,0,0,0,5.6,9.7,25.3,25.3,0,0,0,8.3,6.6A23.2,23.2,0,0,0,398.6,273.7Z" transform="translate(-54.7 -151.9)"/>
    <rect x="56" y="3.2" width="53.5" height="17.41"/><rect x="56" y="57.5" width="40" height="17.41"/>
    <polygon points="40.6 3.2 40.6 135.5 21.2 135.5 21.2 20.6 0 20.6 0 3.2 40.6 3.2"/>
    <circle cx="145.3" cy="188.1" r="9"/>
    <path d="M232,349.2h-9.7V301.7H230l2,4.1a21.4,21.4,0,0,1,4.2-3.7,11.7,11.7,0,0,1,6.1-1.5l3.1.3a25.3,25.3,0,0,1,3.6,1.2,19.2,19.2,0,0,1,3.5,2.3,13.6,13.6,0,0,1,2.9,3.7,15.1,15.1,0,0,1,5.1-5.3,13,13,0,0,1,7.3-2.2,21.4,21.4,0,0,1,5.4.8,13.3,13.3,0,0,1,5.4,3,16.3,16.3,0,0,1,4.1,6,28.1,28.1,0,0,1,1.5,10v28.8h-9V320.3c0-4.1-.8-6.9-2.5-8.5a9,9,0,0,0-6.7-2.5,7.3,7.3,0,0,0-5.6,2.7c-1.6,1.8-2.3,4.6-2.3,8.4v28.8H249V320.3c0-4.1-.8-6.9-2.5-8.5a9,9,0,0,0-6.7-2.5,7.1,7.1,0,0,0-5.2,2.3c-1.5,1.5-2.4,3.9-2.6,7.1Z" transform="translate(-54.7 -151.9)"/>
    <path d="M318.1,350.4a25.8,25.8,0,0,1-9.7-1.9,25.2,25.2,0,0,1-7.9-5.4,24.6,24.6,0,0,1-7.2-17.6,26.1,26.1,0,0,1,1.8-9.7,25.2,25.2,0,0,1,5-8,22.9,22.9,0,0,1,7.3-5.3,20.3,20.3,0,0,1,8.9-1.9,24.4,24.4,0,0,1,9,1.7,18.9,18.9,0,0,1,7.1,5.2,25.2,25.2,0,0,1,4.7,9.1,46.5,46.5,0,0,1,1.7,13.2H303.5a14.9,14.9,0,0,0,2.2,4.8,15.8,15.8,0,0,0,3.5,3.8,15.6,15.6,0,0,0,4.5,2.6,16.1,16.1,0,0,0,5.4.9,17.4,17.4,0,0,0,6.9-1.4,20.2,20.2,0,0,0,5.6-3.7l5.9,5.9a24.2,24.2,0,0,1-8.5,5.6A27.9,27.9,0,0,1,318.1,350.4Zm-1.8-41.1a10.4,10.4,0,0,0-4.3.9,11.9,11.9,0,0,0-3.8,2.5,14,14,0,0,0-3,3.8,17.6,17.6,0,0,0-1.8,4.7h25.1a16.5,16.5,0,0,0-1.1-4.5,11.4,11.4,0,0,0-2.5-3.9,13.4,13.4,0,0,0-3.7-2.5A11,11,0,0,0,316.3,309.3Z" transform="translate(-54.7 -151.9)"/>
    <path d="M357.5,349.2h-9.6V301.7h7.7l1.9,4.1a19.9,19.9,0,0,1,5.8-3.7,17.7,17.7,0,0,1,7.3-1.5,27.5,27.5,0,0,1,5.9.8,16.2,16.2,0,0,1,10.8,9,22.2,22.2,0,0,1,2,10v28.8h-9.1V320.3a13.4,13.4,0,0,0-1-5.2,8.6,8.6,0,0,0-2.5-3.4,8,8,0,0,0-3.4-1.8,14,14,0,0,0-4.1-.6,13.4,13.4,0,0,0-3.6.6,12.7,12.7,0,0,0-3.8,2,10.6,10.6,0,0,0-3,3.3,9.8,9.8,0,0,0-1.3,5Z" transform="translate(-54.7 -151.9)"/>
    <path d="M433.2,344.9a19.4,19.4,0,0,1-5.8,3.8,17.8,17.8,0,0,1-7.4,1.5,26.7,26.7,0,0,1-5.8-.8,14.9,14.9,0,0,1-6.1-2.9,16.3,16.3,0,0,1-4.8-6c-1.3-2.5-1.9-5.9-1.9-10V301.7h9.1v28.8a14,14,0,0,0,.9,5.3,11.1,11.1,0,0,0,2.5,3.4,11.9,11.9,0,0,0,3.5,1.9,14.5,14.5,0,0,0,4.1.6,12.3,12.3,0,0,0,3.6-.6,12,12,0,0,0,3.9-2,14.3,14.3,0,0,0,3-3.4,10.1,10.1,0,0,0,1.2-5.1V301.7h9.6v47.5h-7.6Z" transform="translate(-54.7 -151.9)"/>
</svg>